# xmcd
#
# Track frame offsets: 
#        150
#        18814
#        28894
#        45902
#        57460
#        72220
#        89782
#        101161
#        118271
#        134802
#        161453
#        180073
#        204761
#
# Disc length: 2902 seconds
#
# Revision: 0
# Processed by: cddbd v1.5.2PL0 Copyright (c) Steve Scherf et al.
# Submitted via: ExactAudioCopy v0.99pb4
#
DISCID=af0b540d
DTITLE=Delta Swamp Rock (Various Artists) - Sounds from the South: At 
DTITLE=The Crossroads of Rock, Country and Soul CD1
DYEAR=2011
DGENRE=Blues
TTITLE0=Lynyrd Skynyrd - The Seasons
TTITLE1=Barefoot Jerry - Smokies
TTITLE2=Joe South - Hush
TTITLE3=Bobbie Gentry - Papa Won't You Let Me Go To Town With You
TTITLE4=Area Code 615 - Stone Fox Chase
TTITLE5=Duane and Gregg Allman - God Rest his Soul
TTITLE6=Cher - I Walk on Guilded Splinters
TTITLE7=Cowboy - Please Be with Me
TTITLE8=The Allman Brothers - Ain't Wastin' Time No More
TTITLE9=Link Wray - Be What You Want To
TTITLE10=Boz Scaggs - I'll Be Long Gone
TTITLE11=Lynyrd Skynyrd - Comin' Home
TTITLE12=Bobbie Gentry - Seasons Come, Seasons Go
EXTD=
EXTT0=
EXTT1=
EXTT2=
EXTT3=
EXTT4=
EXTT5=
EXTT6=
EXTT7=
EXTT8=
EXTT9=
EXTT10=
EXTT11=
EXTT12=
PLAYORDER=
